<svg xmlns="http://www.w3.org/2000/svg" version="1.1" xmlns:xlink="http://www.w3.org/1999/xlink" xmlns:svgjs="http://svgjs.com/svgjs" width="512" height="512" x="0" y="0" viewBox="0 0 682.667 682.667" style="enable-background:new 0 0 512 512" xml:space="preserve" class=""><g><defs><clipPath id="b" clipPathUnits="userSpaceOnUse"><path d="M0 512h512V0H0Z" fill="#54b4d3" data-original="#000000" class=""></path></clipPath></defs><mask id="a"><rect width="100%" height="100%" fill="#ffffff" data-original="#ffffff"></rect><path d="M0 0v5.667c0 90.981 74.019 165 165 165 85.482 0 155.984-65.343 164.195-148.702l40.092-36.574C369.749-9.675 370-4.801 370 0v5.667c0 113.037-91.963 205-205 205s-205-91.963-205-205V0c0-57.168 32.776-123.786 97.418-198.002 46.862-53.803 93.069-91.318 95.013-92.889L165-301.045v51.983C124.469-213.549 0-96.604 0 0" style="fill-opacity:1;fill-rule:nonzero;stroke:none" transform="matrix(1.33333 0 0 -1.33333 53.333 280.889)" fill="#ffffff" data-original="#ffffff"></path><path d="M388 81h-60v60h60z" style="fill-opacity:1;fill-rule:nonzero;stroke:none" transform="matrix(1.33333 0 0 -1.33333 0 682.667)" fill="#ffffff" data-original="#ffffff"></path></mask><g mask="url(#a)"><g clip-path="url(#b)" transform="matrix(1.33333 0 0 -1.33333 0 682.667)"><path d="M0 0v5.667c0 90.981 74.019 165 165 165 85.482 0 155.984-65.343 164.195-148.702l40.092-36.574C369.749-9.675 370-4.801 370 0v5.667c0 113.037-91.963 205-205 205s-205-91.963-205-205V0c0-57.168 32.776-123.786 97.418-198.002 46.862-53.803 93.069-91.318 95.013-92.889L165-301.045v51.983C124.469-213.549 0-96.604 0 0" style="fill-opacity:1;fill-rule:nonzero;stroke:none" transform="translate(40 301.334)" fill="#54b4d3" data-original="#000000" class=""></path><path d="M388 81h-60v60h60z" style="fill-opacity:1;fill-rule:nonzero;stroke:none" fill="#54b4d3" data-original="#000000" class=""></path><path d="M0 0c0 35.898 29.102 65 65 65 35.898 0 65-29.102 65-65 0-35.898-29.102-65-65-65C29.102-65 0-35.898 0 0Z" style="stroke-width:40;stroke-linecap:round;stroke-linejoin:round;stroke-miterlimit:10;stroke-dasharray:none;stroke-opacity:1" transform="translate(140 307)" fill="none" stroke="#54b4d3" stroke-width="40" stroke-linecap="round" stroke-linejoin="round" stroke-miterlimit="10" stroke-dasharray="none" stroke-opacity="" data-original="#000000" class=""></path><path d="M0 0v-108.776c0-18.903-15.324-34.228-34.228-34.228h-126.645c-18.903 0-34.228 15.325-34.228 34.228V0" style="stroke-width:40;stroke-linecap:butt;stroke-linejoin:miter;stroke-miterlimit:10;stroke-dasharray:none;stroke-opacity:1" transform="translate(455.05 163.004)" fill="none" stroke="#54b4d3" stroke-width="40" stroke-linecap="butt" stroke-linejoin="miter" stroke-miterlimit="10" stroke-dasharray="none" stroke-opacity="" data-original="#000000" class=""></path><path d="m0 0-127.5 116.315L-255 0" style="stroke-width:40;stroke-linecap:square;stroke-linejoin:miter;stroke-miterlimit:10;stroke-dasharray:none;stroke-opacity:1" transform="translate(485 136.436)" fill="none" stroke="#54b4d3" stroke-width="40" stroke-linecap="square" stroke-linejoin="miter" stroke-miterlimit="10" stroke-dasharray="none" stroke-opacity="" data-original="#000000" class=""></path></g></g></g></svg>