<svg xmlns="http://www.w3.org/2000/svg" version="1.1" xmlns:xlink="http://www.w3.org/1999/xlink" xmlns:svgjs="http://svgjs.com/svgjs" width="512" height="512" x="0" y="0" viewBox="0 0 512 512" style="enable-background:new 0 0 512 512" xml:space="preserve" class=""><g><path fill="#ffb24c" d="m256 293.173-72.833 66.621v42.426c0 13.363 16.157 20.057 25.607 10.606L256 365.599l47.227 47.227c9.449 9.45 25.607 2.757 25.607-10.606v-42.426z" data-original="#ffb24c"></path><path fill="#fcc95d" d="M328.833 359.793V229.75a7.5 7.5 0 0 0-7.5-7.5H190.667a7.5 7.5 0 0 0-7.5 7.5v130.043c0 13.364 16.157 20.056 25.607 10.607l36.62-36.62c5.858-5.858 15.355-5.858 21.213 0l36.62 36.62c9.449 9.449 25.606 2.757 25.606-10.607z" data-original="#fcc95d" class=""></path><path fill="#f593ad" d="m431.667 293.173-72.833 66.621v42.426c0 13.363 16.157 20.057 25.607 10.606l47.227-47.227 47.227 47.227c9.449 9.45 25.607 2.757 25.607-10.606v-42.426z" data-original="#f593ad"></path><path fill="#faaac0" d="M504.5 359.794V229.75a7.5 7.5 0 0 0-7.5-7.5H366.333a7.5 7.5 0 0 0-7.5 7.5v130.043c0 13.364 16.157 20.056 25.607 10.607l36.62-36.62c5.858-5.858 15.355-5.858 21.213 0l36.62 36.62c9.45 9.45 25.607 2.757 25.607-10.606z" data-original="#faaac0" class=""></path><path fill="#64b7de" d="M80.333 293.173 7.5 359.794v42.426c0 13.363 16.157 20.057 25.607 10.606L80.333 365.6l47.227 47.227c9.449 9.45 25.607 2.757 25.607-10.606v-42.426z" data-original="#64b7de" class=""></path><path fill="#4cd0ed" d="M153.167 359.794V229.75a7.5 7.5 0 0 0-7.5-7.5H15a7.5 7.5 0 0 0-7.5 7.5v130.043c0 13.364 16.157 20.056 25.607 10.607l36.62-36.62c5.858-5.858 15.355-5.858 21.213 0l36.62 36.62c9.45 9.45 25.607 2.757 25.607-10.606z" data-original="#4cd0ed" class=""></path><g fill="#4c5a80"><path d="M226.091 169.259a7.5 7.5 0 0 0 9.679-4.34l3.771-9.901h25.846l3.729 9.881a7.503 7.503 0 0 0 7.018 4.854 7.499 7.499 0 0 0 7.015-10.15l-22.324-59.157a8.828 8.828 0 0 0-8.274-5.694 8.831 8.831 0 0 0-8.201 5.507c-.022.056-.045.112-.066.169l-22.53 59.154a7.497 7.497 0 0 0 4.337 9.677zm26.432-48.327 7.202 19.086h-14.472zM371.989 169.75c4.143 0 7.5-3.357 7.5-7.5v-15.537l21.699 20.935a7.475 7.475 0 0 0 5.206 2.103 7.499 7.499 0 0 0 5.208-12.897l-26.754-25.812 24.492-22.513a7.499 7.499 0 0 0 .446-10.597 7.499 7.499 0 0 0-10.597-.446l-19.701 18.109V102.25c0-4.143-3.357-7.5-7.5-7.5s-7.5 3.357-7.5 7.5v60a7.502 7.502 0 0 0 7.501 7.5zM161.99 169.75c4.143 0 7.5-3.357 7.5-7.5v-23.528h26.521v23.528c0 4.143 3.357 7.5 7.5 7.5s7.5-3.357 7.5-7.5v-60c0-4.143-3.357-7.5-7.5-7.5s-7.5 3.357-7.5 7.5v21.472H169.49V102.25c0-4.143-3.357-7.5-7.5-7.5s-7.5 3.357-7.5 7.5v60a7.5 7.5 0 0 0 7.5 7.5zM105.604 109.75h9.001v52.5c0 4.143 3.357 7.5 7.5 7.5s7.5-3.357 7.5-7.5v-52.5h9.135c4.143 0 7.5-3.357 7.5-7.5s-3.357-7.5-7.5-7.5h-33.136c-4.143 0-7.5 3.357-7.5 7.5s3.358 7.5 7.5 7.5zM301.382 169.75c4.143 0 7.5-3.357 7.5-7.5v-35.829l27.686 40.091a7.503 7.503 0 0 0 8.404 2.898 7.501 7.501 0 0 0 5.268-7.16v-59.888c0-4.143-3.357-7.5-7.5-7.5s-7.5 3.357-7.5 7.5v35.829L307.554 98.1a7.502 7.502 0 0 0-13.672 4.262v59.888a7.5 7.5 0 0 0 7.5 7.5z" fill="#4c5a80" data-original="#4c5a80" class=""></path></g><path fill="#ffffff" d="M256 254.716c-20.678 0-37.5 16.822-37.5 37.5s16.822 37.5 37.5 37.5 37.5-16.822 37.5-37.5-16.822-37.5-37.5-37.5zm0 60c-12.406 0-22.5-10.094-22.5-22.5s10.094-22.5 22.5-22.5 22.5 10.094 22.5 22.5-10.094 22.5-22.5 22.5zM103.512 256.083a7.5 7.5 0 0 0-10.377 2.193l-12.732 19.559-12.875-19.72a7.502 7.502 0 0 0-12.561 8.201L72.912 293.8v28.416c0 4.143 3.357 7.5 7.5 7.5s7.5-3.357 7.5-7.5v-28.423l17.793-27.333a7.5 7.5 0 0 0-2.193-10.377zM452.513 254.716a7.499 7.499 0 0 0-7.5 7.5v41.243c0 2.874-.816 6.585-7.183 9.791-1.958.986-4.084 1.466-6.5 1.466-2.676-.003-4.976-.652-7.059-1.983-4.938-3.154-5.95-5.972-5.95-9.229v-41.287c0-4.143-3.357-7.5-7.5-7.5s-7.5 3.357-7.5 7.5v41.287c0 9.055 4.332 16.412 12.874 21.87 4.499 2.874 9.575 4.336 15.087 4.343 4.796 0 9.253-1.033 13.295-3.069 12.758-6.425 15.436-16.155 15.436-23.188v-41.243a7.5 7.5 0 0 0-7.5-7.501z" data-original="#ffffff" class=""></path><path fill="#f98e00" d="m504.5 184.751-497-.001a7.5 7.5 0 0 0-7.5 7.5 7.5 7.5 0 0 0 7.5 7.5l497 .001c4.142 0 7.5-3.357 7.5-7.5s-3.357-7.5-7.5-7.5z" data-original="#fffbdb" class=""></path></g></svg>